<svg xmlns="http://www.w3.org/2000/svg" viewBox="0 0 24 24" width="32" height="32">
  <defs>
    <linearGradient id="fg" x1="0" y1="0" x2="0" y2="1">
      <stop offset="0" stop-color="#ffb020"/>
      <stop offset="1" stop-color="#ff5a36"/>
    </linearGradient>
  </defs>
  <rect width="24" height="24" rx="6" fill="url(#fg)"/>
  <g transform="translate(3.6 3.6) scale(0.7)">
    <path d="M8.5 14.5A2.5 2.5 0 0 0 11 12c0-1.38-.5-2-1-3-1.072-2.143-.224-4.054 2-6 .5 2.5 2 4.9 4 6.5 2 1.6 3 3.5 3 5.5a7 7 0 1 1-14 0c0-1.153.433-2.294 1-3a2.5 2.5 0 0 0 2.5 2.5z" fill="#fff"/>
  </g>
</svg>
